<svg xmlns="http://www.w3.org/2000/svg" xmlns:xlink="http://www.w3.org/1999/xlink" xmlns:lucid="lucid" width="1159" height="920"><g transform="translate(-300.5 -230)" lucid:page-tab-id="0_0"><path d="M320.5 296c0-3.3 2.7-6 6-6h308c3.3 0 6 2.7 6 6v368c0 3.3-2.7 6-6 6h-308c-3.3 0-6-2.7-6-6z" stroke="#5e5e5e" stroke-width="3" fill="#ffbbb1"/><use xlink:href="#a" transform="matrix(1,0,0,1,325.5,295) translate(151.91358024691357 162.30902777777777)"/><use xlink:href="#a" transform="matrix(1,0,0,1,325.5,295) translate(151.91358024691357 188.97569444444443)"/><use xlink:href="#b" transform="matrix(1,0,0,1,325.5,295) translate(151.91358024691357 215.6423611111111)"/><path d="M320.5 256c0-3.3 2.7-6 6-6h308c3.3 0 6 2.7 6 6v48c0 3.3-2.7 6-6 6h-308c-3.3 0-6-2.7-6-6z" stroke="#000" stroke-opacity="0" stroke-width="3" fill="#fff" fill-opacity="0"/><use xlink:href="#c" transform="matrix(1,0,0,1,325.5,255) translate(55.092592592592624 30.27777777777778)"/><path d="M360.5 316c0-3.3 2.7-6 6-6h228c3.3 0 6 2.7 6 6v88c0 3.3-2.7 6-6 6h-228c-3.3 0-6-2.7-6-6z" stroke="#5e5e5e" stroke-width="3" fill="#ff8f80"/><use xlink:href="#d" transform="matrix(1,0,0,1,365.5,315) translate(90.33950617283952 48.71527777777778)"/><path d="M360.5 556c0-3.3 2.7-6 6-6h228c3.3 0 6 2.7 6 6v88c0 3.3-2.7 6-6 6h-228c-3.3 0-6-2.7-6-6z" stroke="#5e5e5e" stroke-width="3" fill="#ff8f80"/><use xlink:href="#e" transform="matrix(1,0,0,1,365.5,555) translate(1.5432098765432158 48.71527777777778)"/><use xlink:href="#f" transform="matrix(1,0,0,1,365.5,555) translate(74.25925925925925 48.71527777777778)"/><path d="M320.5 756c0-3.3 2.7-6 6-6h308c3.3 0 6 2.7 6 6v368c0 3.3-2.7 6-6 6h-308c-3.3 0-6-2.7-6-6z" stroke="#5e5e5e" stroke-width="3" fill="#99d5ca"/><use xlink:href="#a" transform="matrix(1,0,0,1,325.5,755) translate(151.91358024691357 162.30902777777777)"/><use xlink:href="#a" transform="matrix(1,0,0,1,325.5,755) translate(151.91358024691357 188.97569444444443)"/><use xlink:href="#b" transform="matrix(1,0,0,1,325.5,755) translate(151.91358024691357 215.6423611111111)"/><path d="M320.5 716c0-3.3 2.7-6 6-6h308c3.3 0 6 2.7 6 6v48c0 3.3-2.7 6-6 6h-308c-3.3 0-6-2.7-6-6z" stroke="#000" stroke-opacity="0" stroke-width="3" fill="#fff" fill-opacity="0"/><use xlink:href="#g" transform="matrix(1,0,0,1,325.5,715) translate(54.506172839506206 30.27777777777778)"/><path d="M360.5 776c0-3.3 2.7-6 6-6h228c3.3 0 6 2.7 6 6v88c0 3.3-2.7 6-6 6h-228c-3.3 0-6-2.7-6-6z" stroke="#5e5e5e" stroke-width="3" fill="#a3d977"/><use xlink:href="#d" transform="matrix(1,0,0,1,365.5,775) translate(90.33950617283952 48.71527777777778)"/><path d="M360.5 1016c0-3.3 2.7-6 6-6h228c3.3 0 6 2.7 6 6v88c0 3.3-2.7 6-6 6h-228c-3.3 0-6-2.7-6-6z" stroke="#5e5e5e" stroke-width="3" fill="#a3d977"/><use xlink:href="#e" transform="matrix(1,0,0,1,365.5,1015) translate(1.5432098765432158 48.71527777777778)"/><use xlink:href="#f" transform="matrix(1,0,0,1,365.5,1015) translate(74.25925925925925 48.71527777777778)"/><path d="M1119.5 336c0-3.3 2.7-6 6-6h308c3.3 0 6 2.7 6 6v748c0 3.3-2.7 6-6 6h-308c-3.3 0-6-2.7-6-6z" stroke="#5e5e5e" stroke-width="3" fill="#c1e4f7"/><path d="M1159.5 356c0-3.3 2.7-6 6-6h228c3.3 0 6 2.7 6 6v88c0 3.3-2.7 6-6 6h-228c-3.3 0-6-2.7-6-6z" stroke="#5e5e5e" stroke-width="3" fill="#99d2f2"/><use xlink:href="#h" transform="matrix(1,0,0,1,1164.5,355) translate(60.83333333333332 48.71527777777778)"/><path d="M1159.5 476c0-3.3 2.7-6 6-6h228c3.3 0 6 2.7 6 6v88c0 3.3-2.7 6-6 6h-228c-3.3 0-6-2.7-6-6z" stroke="#5e5e5e" stroke-width="3" fill="#99d2f2"/><use xlink:href="#i" transform="matrix(1,0,0,1,1164.5,475) translate(81.54320987654322 48.71527777777778)"/><path d="M1119.5 476c0-3.3 2.7-6 6-6h68c3.3 0 6 2.7 6 6v28c0 3.3-2.7 6-6 6h-68c-3.3 0-6-2.7-6-6z" stroke="#5e5e5e" stroke-width="3" fill="#ffeca9"/><use xlink:href="#j" transform="matrix(1,0,0,1,1124.5,475) translate(16.48148148148148 19.65277777777778)"/><path d="M1159.5 596c0-3.3 2.7-6 6-6h228c3.3 0 6 2.7 6 6v88c0 3.3-2.7 6-6 6h-228c-3.3 0-6-2.7-6-6z" stroke="#5e5e5e" stroke-width="3" fill="#ff8f80"/><use xlink:href="#k" transform="matrix(1,0,0,1,1164.5,595) translate(7.222222222222243 48.71527777777778)"/><path d="M1159.5 716c0-3.3 2.7-6 6-6h228c3.3 0 6 2.7 6 6v88c0 3.3-2.7 6-6 6h-228c-3.3 0-6-2.7-6-6z" stroke="#5e5e5e" stroke-width="3" fill="#ff8f80"/><use xlink:href="#l" transform="matrix(1,0,0,1,1164.5,715) translate(21.913580246913583 48.71527777777778)"/><path d="M1159.5 836c0-3.3 2.7-6 6-6h228c3.3 0 6 2.7 6 6v88c0 3.3-2.7 6-6 6h-228c-3.3 0-6-2.7-6-6z" stroke="#5e5e5e" stroke-width="3" fill="#a3d977"/><use xlink:href="#k" transform="matrix(1,0,0,1,1164.5,835) translate(7.222222222222243 48.71527777777778)"/><path d="M1159.5 956c0-3.3 2.7-6 6-6h228c3.3 0 6 2.7 6 6v88c0 3.3-2.7 6-6 6h-228c-3.3 0-6-2.7-6-6z" stroke="#5e5e5e" stroke-width="3" fill="#a3d977"/><use xlink:href="#l" transform="matrix(1,0,0,1,1164.5,955) translate(21.913580246913583 48.71527777777778)"/><path d="M1159.5 596c0-3.3 2.7-6 6-6h28c3.3 0 6 2.7 6 6v28c0 3.3-2.7 6-6 6h-28c-3.3 0-6-2.7-6-6z" stroke="#5e5e5e" stroke-width="3" fill="#ffeca9"/><use xlink:href="#m" transform="matrix(1,0,0,1,1164.5,595) translate(2.6543209876543212 19.65277777777778)"/><path d="M1159.5 716c0-3.3 2.7-6 6-6h28c3.3 0 6 2.7 6 6v28c0 3.3-2.7 6-6 6h-28c-3.3 0-6-2.7-6-6z" stroke="#5e5e5e" stroke-width="3" fill="#ffeca9"/><use xlink:href="#m" transform="matrix(1,0,0,1,1164.5,715) translate(2.6543209876543212 19.65277777777778)"/><path d="M1159.5 836c0-3.3 2.7-6 6-6h28c3.3 0 6 2.7 6 6v28c0 3.3-2.7 6-6 6h-28c-3.3 0-6-2.7-6-6z" stroke="#5e5e5e" stroke-width="3" fill="#ffeca9"/><use xlink:href="#m" transform="matrix(1,0,0,1,1164.5,835) translate(2.6543209876543212 19.65277777777778)"/><path d="M1159.5 956c0-3.3 2.7-6 6-6h28c3.3 0 6 2.7 6 6v28c0 3.3-2.7 6-6 6h-28c-3.3 0-6-2.7-6-6z" stroke="#5e5e5e" stroke-width="3" fill="#ffeca9"/><use xlink:href="#m" transform="matrix(1,0,0,1,1164.5,955) translate(2.6543209876543212 19.65277777777778)"/><path d="M1119.5 296c0-3.3 2.7-6 6-6h308c3.3 0 6 2.7 6 6v48c0 3.3-2.7 6-6 6h-308c-3.3 0-6-2.7-6-6z" stroke="#000" stroke-opacity="0" stroke-width="3" fill="#fff" fill-opacity="0"/><use xlink:href="#n" transform="matrix(1,0,0,1,1124.5,295) translate(93.39506172839505 30.27777777777778)"/><path d="M1202 490h12.5l3.03.82 2.15 2.15.82 3.03v8m0 8v16m0 8v8l-.82 3.03-2.15 2.15-3.03.82h-9.67m-9.66 0h-19.34m-9.66 0h-9.67l-3.03.82-2.15 2.15-.82 3.03v8m0 8v16m0 8v8l.82 3.03 2.15 2.15 3.03.82h.5" stroke="#c92d39" stroke-width="2" fill="none"/><path d="M1202.03 491H1201v-2h1.03zM1158 611h-1.03v-2h1.03zM1020.5 483.87l.7 2.64 1.8 1.8 2.63.7h10.04v2h-10.3l-3.42-.92-2.53-2.53-.92-3.42v-9.96h2zm45.67 7.13h-20.34v-2h20.34zm30.5 0h-20.34v-2h20.34zm20.33 0h-10.17v-2H1117zm-96.5-26.67h-2v-19.66h2zm0-29.5h-2v-19.66h2zm0-29.5h-2v-19.66h2zm-3.45-45.4l2.53 2.52.92 3.42v9.96h-2v-9.7l-.7-2.64-1.8-1.8-2.63-.7h-9.64v-2h9.9zM612.77 361H603v-2h9.77zm29.33 0h-19.55v-2h19.55zm29.32 0h-19.55v-2h19.55zm29.32 0H681.2v-2h19.54zm18.3 0h-8.53v-2h8.55zm245.6 0h-19.56v-2h19.55zm29.3 0H974.4v-2h19.55zm-58.63 0h-13.24v-2h13.25z" fill="#c92d39"/><path d="M603.03 361H602v-2h1.03zM1118 491h-1.03v-2h1.03z" fill="#c92d39"/><use xlink:href="#o" transform="matrix(1,0,0,1,719.0508713777142,349.3333333333333) translate(0 14.222222222222223)"/><path d="M1060.5 483.87l.7 2.64 1.8 1.8 2.63.7h8.45v2h-8.7l-3.43-.92-2.53-2.53-.92-3.42v-9.46h2zm39.33 7.13h-17.16v-2h17.16zm17.17 0h-8.58v-2h8.58zm-56.5-25.67h-2v-18.66h2zm0-28h-2v-18.66h2zm0-28h-2v-18.66h2zm0-28h-2v-18.66h2zM614.92 361H603v-2h11.92zm35.75 0h-23.84v-2h23.84zm30.83-6.87l-.92 3.42-2.53 2.53-3.42.92h-12.05v-2h11.8l2.63-.7 1.8-1.8.7-2.63v-12.54h2zm379-.8h-2v-18.66h2zM696.7 311h-10.07l-2.64.7-1.8 1.8-.7 2.63v12.54h-2v-12.8l.92-3.42 2.53-2.53 3.42-.92h10.32zm360.35-1.08l2.53 2.53.92 3.42v9.46h-2v-9.2l-.7-2.64-1.8-1.8-2.63-.7h-10.06v-2h10.33zM719.8 311h-12.9v-2h12.9zm252.14 0h-20.38v-2h20.38zm30.6 0h-20.4v-2h20.4zm30.57 0h-20.38v-2h20.4z" fill="#c92d39"/><path d="M603.03 361H602v-2h1.03zM1118 491h-1.03v-2h1.03z" fill="#c92d39"/><use xlink:href="#p" transform="matrix(1,0,0,1,719.809138482501,299.3333333333333) translate(0 14.222222222222223)"/><path d="M981.5 483.87l.7 2.64 1.8 1.8 2.63.7h10.75v2h-11l-3.43-.92-2.53-2.53-.92-3.42v-11.46h2zM1030 491h-21.75v-2H1030zm32.63 0h-21.76v-2h21.76zm32.62 0h-21.75v-2h21.75zm21.75 0h-10.88v-2H1117zm-135.5-29.67h-2v-22.66h2zm-3.45-51.4l2.53 2.52.92 3.42v11.46h-2v-11.2l-.7-2.64-1.8-1.8-2.63-.7h-9.47v-2h9.73zm-296.55-6.06l.7 2.64 1.8 1.8 2.63.7h9.47v2h-9.73l-3.42-.92-2.53-2.53-.92-3.42v-12.8h2zm37.9 7.13h-13.7v-2h13.7zm235.9 0h-19.2v-2h19.2zm-28.8 0h-12.1v-2h12.1zm-248.45-51.08l2.53 2.53.92 3.42v12.8h-2v-12.54l-.7-2.64-1.8-1.8-2.63-.7h-11.8v-2h12.06zM614.92 361H603v-2h11.92zm35.75 0h-23.84v-2h23.84z" fill="#c92d39"/><path d="M603.03 361H602v-2h1.03zM1118 491h-1.03v-2h1.03z" fill="#c92d39"/><use xlink:href="#q" transform="matrix(1,0,0,1,719.3958175389165,399.3333333333333) translate(0 14.222222222222223)"/><path d="M606 601h-3v-2h3zm10.05 0h-6.02v-2h6.02zm10.03 0h-6.02v-2h6.02zm10.04 0h-6.02v-2h6.02zm10.04 0h-6.02v-2h6.02zm10.03 0h-6.03v-2h6.02zm10.03 0h-6.02v-2h6.03zm10.04 0h-6.02v-2h6.02zm10.03 0h-6.02v-2h6.02zm10.04 0h-6.02v-2h6.02zm10.04 0h-6.03v-2h6.03zm10.03 0h-6v-2h6zm271 0h-6.02v-2h6.02zm10.04 0h-6.02v-2h6.02zm10.03 0h-6.02v-2h6.02zm10-.76l-2.84.76h-3.14v-2h2.87l2.57-.7zm-40.1.76h-.52v-2h.5zm44.13-6.87l-.76 2.83-1.94-.52.7-2.57v-2.82h2zm0-7.02h-2v-5.9h2zm0-9.83h-2v-5.9h2zm0-9.84h-2v-5.9h2zm0-9.85h-2v-5.9h2zm0-9.84h-2v-5.9h2zm0-9.84h-2V532h2zm0-9.84h-2v-5.9h2zm0-9.84h-2v-5.9h2zm0-9.84h-2v-5.9h2zm.7-15.24l-.7 2.57v2.83h-2v-3.08l.76-2.83zm7.32-2.56h-2.9l-2.56.7-.52-1.93 2.83-.77h3.15zm10.05 0h-6.03v-2h6.03zm10.06 0h-6.04v-2h6.03zm10.05 0h-6.03v-2h6.03zm10.06 0h-6.03v-2h6.04zm10.05 0h-6.04v-2h6.03zm10.05 0h-6.03v-2h6.03zm10.06 0h-6.03v-2h6.04zm10.06 0h-6.03v-2h6.03zm7.04 0h-3.02v-2h3.02z" fill="#c92d39"/><path d="M603.03 601H602v-2h1.03zM1118 490.58h-1.03v-2h1.03z" fill="#c92d39"/><use xlink:href="#r" transform="matrix(1,0,0,1,719.8169348735657,589.3333333333334) translate(0 14.222222222222223)"/><path d="M1201 491v3.3m0 4.4v6.6m0 4.4v6.6m0 4.4v3.3l-.73 2.7m-2.57 2.57l-2.7.73h-2.9m-3.9 0h-5.8m-3.9 0h-5.8m-3.9 0h-5.8m-3.9 0h-5.8m-3.9 0h-2.9l-2.7.73m-2.57 2.57l-.73 2.7v2.94m0 3.9v5.9m0 3.9v5.88m0 3.92v5.88m0 3.9v5.9m0 3.9v5.88m0 3.92v5.87m0 3.9v5.9m0 3.9v5.88m0 3.92v5.87m0 3.92v5.87m0 3.9v5.9m0 3.9v5.88m0 3.92v5.87m0 3.92v5.88m0 3.9v5.9m0 3.9v5.88m0 3.92v5.87m0 3.93v5.88m0 3.92v2.94l.73 2.7m2.57 2.57l2.7.73h3.15m4.2 0h3.15M1201 491.03V490" stroke="#c92d39" stroke-width="2" fill="none"/><path d="M1158 729.06h-1.03v-2h1.03z" fill="#c92d39"/><path d="M614.3 821h-9.8v-2h9.8zm29.37 0h-19.6v-2h19.6zm29.37 0h-19.58v-2h19.58zm29.38 0h-19.6v-2h19.6zm17.13 0h-7.34v-2h7.35zm247.24 0h-19.6v-2h19.6zm29.37 0h-19.6v-2h19.6zm29.37 0h-19.58v-2h19.58zm29.38 0h-19.6v-2h19.6zm26.58-6.87l-.92 3.42-2.53 2.53-3.42.92h-9.92v-2h9.67l2.64-.7 1.8-1.8.7-2.63v-9.52h2zM937.42 821h-14.86v-2h14.86zm144.08-26.3h-2v-19.3h2zm0-28.95h-2v-19.3h2zm0-28.94h-2v-19.3h2zm0-28.94h-2v-19.3h2zm0-28.95h-2v-19.3h2zm0-28.93h-2v-19.3h2zm0-28.95h-2v-19.3h2zm0-28.95h-2v-19.3h2zm0-28.95h-2v-19.3h2zm0-28.94h-2v-19.3h2zm15.17-43.6h-10.04l-2.64.72-1.8 1.77-.7 2.64v9.53h-2v-9.78l.92-3.42 2.53-2.53 3.42-.92h10.3zm20.33 0h-10.17v-2H1117z" fill="#7ab648"/><path d="M604.53 821h-1.03v-2h1.03zM1118 490.58h-1.03v-2h1.03z" fill="#7ab648"/><use xlink:href="#s" transform="matrix(1,0,0,1,719.5492285585356,809.3333333333334) translate(0 14.222222222222223)"/><path d="M616.42 821H604.5v-2h11.92zm35.75 0h-23.84v-2h23.84zm30.83-6.87l-.92 3.42-2.53 2.53-3.42.92h-12.05v-2h11.8l2.63-.7 1.8-1.8.7-2.63v-12.54h2zM697.9 771h-9.77l-2.64.7-1.8 1.8-.7 2.63v12.54h-2v-12.8l.92-3.42 2.53-2.53 3.42-.92h10.04zm21.55 0h-11.63v-2h11.63zm275.77 0H975.4v-2h19.82zm29.73 0h-19.82v-2h19.82zm29.73 0h-19.82v-2h19.82zm26.82-6.87l-.92 3.42-2.53 2.53-3.42.92h-10.04v-2h9.77l2.64-.7 1.8-1.8.7-2.63v-9.8h2zm-116 6.87H948v-2h17.5zm116-26.88h-2v-19.9h2zm0-29.83h-2v-19.9h2zm0-29.83h-2V664.6h2zm0-29.83h-2v-19.88h2zm0-29.82h-2v-19.88h2zm0-29.82h-2v-19.9h2zm0-29.83h-2V545.3h2zm0-29.82h-2v-19.9h2zm15.17-44.77h-10.04l-2.64.72-1.8 1.77-.7 2.64v9.82h-2v-10.07l.92-3.42 2.53-2.53 3.42-.92h10.3zm20.33 0h-10.17v-2H1117z" fill="#7ab648"/><path d="M604.53 821h-1.03v-2h1.03zM1118 490.58h-1.03v-2h1.03z" fill="#7ab648"/><use xlink:href="#t" transform="matrix(1,0,0,1,719.445855377939,759.3333333333334) translate(0 14.222222222222223)"/><path d="M683 863.87l.7 2.64 1.8 1.8 2.63.7h9.78v2h-10.03l-3.42-.92-2.53-2.53-.92-3.42v-12.8h2zm36.9 7.13h-12.08v-2h12.08zm215.86 0h-19.82v-2h19.82zm29.73 0h-19.83v-2h19.82zm29.72 0H975.4v-2h19.82zm29.73 0h-19.82v-2h19.82zm29.73 0h-19.82v-2h19.82zm26.82-6.87l-.92 3.42-2.53 2.53-3.42.92h-10.04v-2h9.77l2.64-.7 1.8-1.8.7-2.63v-10.1h2zm0-20.57h-2V823.1h2zm-401.95-23.64l2.53 2.53.92 3.42v12.8h-2v-12.54l-.7-2.64-1.8-1.8-2.63-.7h-11.8v-2h12.06zM616.42 821H604.5v-2h11.92zm35.75 0h-23.84v-2h23.84zm429.33-8.1h-2v-20.46h2zm0-30.68h-2v-20.44h2zm0-30.66h-2V731.1h2zm0-30.67h-2v-20.46h2zm0-30.68h-2v-20.44h2zm0-30.66h-2V639.1h2zm0-30.67h-2v-20.46h2zm0-30.68h-2v-20.44h2zm0-30.66h-2V547.1h2zm0-30.67h-2v-20.46h2zm15.17-45.9h-10.04l-2.64.7-1.8 1.8-.7 2.63v10.1h-2v-10.36l.92-3.42 2.53-2.53 3.42-.92h10.3zm20.33 0h-10.17v-2H1117z" fill="#7ab648"/><path d="M604.53 821h-1.03v-2h1.03zM1118 491h-1.03v-2h1.03z" fill="#7ab648"/><use xlink:href="#u" transform="matrix(1,0,0,1,719.8990934324244,859.3333333333334) translate(0 14.222222222222223)"/><path d="M607.5 1061h-3v-2h3zm10 0h-6v-2h6zm10 0h-6v-2h6zm10 0h-6v-2h6zm10 0h-6v-2h6zm10 0h-6v-2h6zm10 0h-6v-2h6zm10 0h-6v-2h6zm10 0h-6v-2h6zm10 0h-6v-2h6zm10 0h-6v-2h6zm10 0h-6v-2h6zm270 0h-6v-2h6zm10 0h-6v-2h6zm10 0h-6v-2h6zm10 0h-6v-2h6zm10 0h-6v-2h6zm10 0h-6v-2h6zm10 0h-6v-2h6zm10 0h-6v-2h6zm10 0h-6v-2h6zm9.96-.76l-2.83.76h-3.13v-2h2.87l2.57-.7zm-99.96.76h-.4v-2h.4zm104-6.87l-.76 2.83-1.94-.52.7-2.57V1051h2zm0-7.1h-2v-6h2zm0-9.98h-2v-6h2zm0-9.97h-2v-6h2zm0-9.98h-2v-5.98h2zm0-9.97h-2v-5.98h2zm0-9.97h-2v-5.98h2zm0-9.97h-2v-6h2zm0-9.98h-2v-6h2zm0-9.97h-2v-6h2zm0-9.98h-2v-5.98h2zm0-9.97h-2v-5.98h2zm0-9.97h-2v-5.98h2zm0-9.97h-2v-5.98h2zm0-9.97h-2v-6h2zm0-10h-2v-5.97h2zm0-9.96h-2v-5.98h2zm0-9.97h-2v-5.98h2zm0-9.97h-2v-5.98h2zm0-9.97h-2v-6h2zm0-9.97h-2v-6h2zm0-9.98h-2v-5.98h2zm0-9.97h-2v-5.97h2zm0-9.96h-2v-5.98h2zm0-9.97h-2v-5.98h2zm0-9.97h-2v-6h2zm0-9.97h-2v-6h2zm0-9.98h-2v-5.98h2zm0-9.97h-2v-5.98h2zm0-9.97h-2v-5.97h2zm0-9.96h-2v-5.98h2zm0-9.97h-2v-6h2zm0-9.98h-2v-6h2zm0-9.98h-2v-5.98h2zm0-9.97h-2v-5.98h2zm0-9.97h-2V702h2zm0-9.97h-2v-5.98h2zm0-9.96h-2v-6h2zm0-9.98h-2v-5.98h2zm0-9.97h-2v-6h2zm0-9.98h-2v-5.98h2zm0-9.97h-2v-5.98h2zm0-9.97h-2v-6h2zm0-9.97h-2v-5.98h2zm0-9.97h-2v-5.98h2zm0-9.97h-2v-5.98h2zm0-9.97h-2v-6h2zm0-9.98h-2v-5.98h2zm0-9.97h-2v-6h2zm0-9.98h-2v-5.98h2zm0-9.97h-2v-5.98h2zm0-9.97h-2v-5.98h2zm0-9.97h-2v-5.98h2zm0-9.97h-2v-6h2zm0-9.98h-2v-6h2zm0-9.98h-2v-5.98h2zm.7-15.4l-.7 2.57v2.87h-2v-3.12l.76-2.83zm7.35-2.56h-2.92l-2.57.7-.52-1.93 2.83-.77h3.18zm10.17 0h-6.1v-2h6.1zm10.16 0h-6.1v-2h6.1zm7.12 0h-3.05v-2h3.05z" fill="#7ab648"/><path d="M604.53 1061h-1.03v-2h1.03zM1118 490.58h-1.03v-2h1.03z" fill="#7ab648"/><use xlink:href="#v" transform="matrix(1,0,0,1,720.070816200544,1049.3333333333333) translate(0 14.222222222222223)"/><path d="M1202 490h9.64m9.65 0h19.27m9.64 0h19.3m9.64 0h19.3m9.63 0h19.3m9.63 0h19.3m9.63 0h19.28m9.66 0h9.64l3.03.82 2.15 2.15.82 3.03v9.64m0 9.63v19.28m0 9.63v19.27m0 9.64v19.26m0 9.64v19.27m0 9.64v19.28m0 9.64v19.27m0 9.63V708m0 9.64v19.27m0 9.65v19.27m0 9.63v19.28m0 9.63V814l-.82 3.03-2.15 2.15-3.03.82h-10.43m-10.43 0h-20.85m-10.44 0h-20.86m-10.43 0h-20.86m-10.4 0h-20.87m-10.43 0h-20.86m-10.43 0h-20.84m-10.43 0h-10.43l-3.03.82-2.15 2.15-.82 3.03v1.5" stroke="#7ab648" stroke-width="2" fill="none"/><path d="M1202.03 491H1201v-2h1.03zM1180.5 828.5h-2v-1.03h2z" fill="#7ab648"/><path d="M1202 490h3.04m4.04 0h6.07m4.05 0h6.07m4.05 0h6.07m4.04 0h6.07m4.06 0h6.07m4.05 0h6.07m4.05 0h6.07m4.05 0h6.07m4.04 0h6.07m4.05 0h6.08m4.04 0h6.08m4.04 0h6.06m4.05 0h6.08m4.05 0h6.07m4.05 0h6.07m4.05 0h6.07m4.05 0h6.06m4.05 0h6.08m4.05 0h6.07m4.05 0h6.07m4.04 0h3.04l2.7.73m2.57 2.57l.73 2.7v3m0 3.97v5.97m0 3.98v5.98m0 3.98v5.97m0 3.98v5.97m0 4v5.96m0 3.98v5.97m0 4v5.97m0 3.98v5.97m0 3.98v5.98m0 3.98v5.97m0 3.98v6m0 3.97v5.97m0 3.98v5.98m0 3.98v5.97m0 3.98v5.97m0 4v5.96m0 3.98v5.97m0 4v5.97m0 3.98v5.97m0 3.98v5.98m0 3.98v5.97m0 3.98v6m0 3.97v5.97m0 3.98v5.98m0 3.98v5.97m0 3.98v5.97m0 4v5.96m0 3.98v5.97m0 4v5.97m0 3.98v5.97m0 3.98v5.98m0 3.98v5.97m0 3.98v6m0 3.97v5.97m0 3.98v5.98m0 3.98v5.97m0 3.98v5.97m0 4v5.96m0 3.98v5.97m0 4v5.97m0 3.98v5.97m0 3.98v5.98m0 3.98v5.97m0 3.98v3l-.73 2.7m-2.57 2.57l-2.7.73h-3m-3.97 0h-5.97m-4 0h-5.96m-3.98 0h-5.98m-3.98 0h-5.97m-4 0h-5.97m-3.98 0h-5.98m-3.98 0h-5.98m-4 0h-5.96m-3.98 0h-5.98m-3.98 0h-5.97m-3.98 0H1302m-4 0h-5.97m-3.98 0h-5.97m-3.98 0h-5.98m-3.98 0h-5.97m-4 0h-5.96m-3.97 0h-5.98m-3.98 0h-5.97m-4 0h-5.96m-3.98 0h-5.98m-3.98 0h-5.97m-4 0h-5.96m-3.98 0h-3l-2.7.73m-2.57 2.57l-.73 2.7v1.5" stroke="#7ab648" stroke-width="2" fill="none"/><path d="M1202.03 491H1201v-2h1.03zM1180.5 948.5h-2v-1.03h2z" fill="#7ab648"/><defs><path fill="#333" d="M33 0v-38h34V0H33" id="w"/><use transform="matrix(0.06172839506172839,0,0,0.06172839506172839,0,0)" xlink:href="#w" id="a"/><use transform="matrix(0.06172839506172839,0,0,0.06172839506172839,0,0)" xlink:href="#w" id="b"/><path fill="#333" d="M101-251c68 0 85 55 85 127S166 4 100 4C33 4 14-52 14-124c0-73 17-127 87-127zm-1 229c47 0 54-49 54-102s-4-102-53-102c-51 0-55 48-55 102 0 53 5 102 54 102" id="x"/><path fill="#333" d="M33-154v-36h34v36H33zM33 0v-36h34V0H33" id="y"/><path fill="#333" d="M160-131c35 5 61 23 61 61C221 17 115-2 30 0v-248c76 3 177-17 177 60 0 33-19 50-47 57zm-97-11c50-1 110 9 110-42 0-47-63-36-110-37v79zm0 115c55-2 124 14 124-45 0-56-70-42-124-44v89" id="z"/><path fill="#333" d="M205 0l-28-72H64L36 0H1l101-248h38L239 0h-34zm-38-99l-47-123c-12 45-31 82-46 123h93" id="A"/><path fill="#333" d="M30-248c118-7 216 8 213 122C240-48 200 0 122 0H30v-248zM63-27c89 8 146-16 146-99s-60-101-146-95v194" id="B"/><path fill="#333" d="M30 0v-248h187v28H63v79h144v27H63v87h162V0H30" id="C"/><path fill="#333" d="M63-220v92h138v28H63V0H30v-248h175v28H63" id="D"/><g id="c"><use transform="matrix(0.06172839506172839,0,0,0.06172839506172839,0,0)" xlink:href="#x"/><use transform="matrix(0.06172839506172839,0,0,0.06172839506172839,12.345679012345679,0)" xlink:href="#x"/><use transform="matrix(0.06172839506172839,0,0,0.06172839506172839,24.691358024691358,0)" xlink:href="#y"/><use transform="matrix(0.06172839506172839,0,0,0.06172839506172839,30.864197530864196,0)" xlink:href="#x"/><use transform="matrix(0.06172839506172839,0,0,0.06172839506172839,43.20987654320987,0)" xlink:href="#x"/><use transform="matrix(0.06172839506172839,0,0,0.06172839506172839,55.55555555555555,0)" xlink:href="#y"/><use transform="matrix(0.06172839506172839,0,0,0.06172839506172839,61.72839506172839,0)" xlink:href="#z"/><use transform="matrix(0.06172839506172839,0,0,0.06172839506172839,76.5432098765432,0)" xlink:href="#A"/><use transform="matrix(0.06172839506172839,0,0,0.06172839506172839,91.35802469135801,0)" xlink:href="#y"/><use transform="matrix(0.06172839506172839,0,0,0.06172839506172839,97.53086419753085,0)" xlink:href="#B"/><use transform="matrix(0.06172839506172839,0,0,0.06172839506172839,113.5185185185185,0)" xlink:href="#B"/><use transform="matrix(0.06172839506172839,0,0,0.06172839506172839,129.50617283950615,0)" xlink:href="#y"/><use transform="matrix(0.06172839506172839,0,0,0.06172839506172839,135.67901234567898,0)" xlink:href="#z"/><use transform="matrix(0.06172839506172839,0,0,0.06172839506172839,150.4938271604938,0)" xlink:href="#C"/><use transform="matrix(0.06172839506172839,0,0,0.06172839506172839,165.3086419753086,0)" xlink:href="#y"/><use transform="matrix(0.06172839506172839,0,0,0.06172839506172839,171.48148148148144,0)" xlink:href="#C"/><use transform="matrix(0.06172839506172839,0,0,0.06172839506172839,186.29629629629625,0)" xlink:href="#D"/></g><path fill="#333" d="M24-231v-30h32v30H24zM24 0v-190h32V0H24" id="E"/><path fill="#333" d="M30-248c87 1 191-15 191 75 0 78-77 80-158 76V0H30v-248zm33 125c57 0 124 11 124-50 0-59-68-47-124-48v98" id="F"/><path fill="#333" d="M195 0l-74-108L45 0H8l94-129-87-119h37l69 98 67-98h37l-84 118L233 0h-38" id="G"/><g id="d"><use transform="matrix(0.06172839506172839,0,0,0.06172839506172839,0,0)" xlink:href="#E"/><use transform="matrix(0.06172839506172839,0,0,0.06172839506172839,4.876543209876543,0)" xlink:href="#F"/><use transform="matrix(0.06172839506172839,0,0,0.06172839506172839,19.691358024691354,0)" xlink:href="#G"/><use transform="matrix(0.06172839506172839,0,0,0.06172839506172839,34.50617283950616,0)" xlink:href="#C"/></g><path fill="#333" d="M210-169c-67 3-38 105-44 169h-31v-121c0-29-5-50-35-48C34-165 62-65 56 0H25l-1-190h30c1 10-1 24 2 32 10-44 99-50 107 0 11-21 27-35 58-36 85-2 47 119 55 194h-31v-121c0-29-5-49-35-48" id="H"/><path fill="#333" d="M141-36C126-15 110 5 73 4 37 3 15-17 15-53c-1-64 63-63 125-63 3-35-9-54-41-54-24 1-41 7-42 31l-33-3c5-37 33-52 76-52 45 0 72 20 72 64v82c-1 20 7 32 28 27v20c-31 9-61-2-59-35zM48-53c0 20 12 33 32 33 41-3 63-29 60-74-43 2-92-5-92 41" id="I"/><path fill="#333" d="M177-190C167-65 218 103 67 71c-23-6-38-20-44-43l32-5c15 47 100 32 89-28v-30C133-14 115 1 83 1 29 1 15-40 15-95c0-56 16-97 71-98 29-1 48 16 59 35 1-10 0-23 2-32h30zM94-22c36 0 50-32 50-73 0-42-14-75-50-75-39 0-46 34-46 75s6 73 46 73" id="J"/><path fill="#333" d="M100-194c63 0 86 42 84 106H49c0 40 14 67 53 68 26 1 43-12 49-29l28 8c-11 28-37 45-77 45C44 4 14-33 15-96c1-61 26-98 85-98zm52 81c6-60-76-77-97-28-3 7-6 17-6 28h103" id="K"/><g id="e"><use transform="matrix(0.06172839506172839,0,0,0.06172839506172839,0,0)" xlink:href="#E"/><use transform="matrix(0.06172839506172839,0,0,0.06172839506172839,4.876543209876543,0)" xlink:href="#H"/><use transform="matrix(0.06172839506172839,0,0,0.06172839506172839,23.33333333333333,0)" xlink:href="#I"/><use transform="matrix(0.06172839506172839,0,0,0.06172839506172839,35.679012345679006,0)" xlink:href="#J"/><use transform="matrix(0.06172839506172839,0,0,0.06172839506172839,48.02469135802468,0)" xlink:href="#K"/><use transform="matrix(0.06172839506172839,0,0,0.06172839506172839,60.37037037037036,0)" xlink:href="#y"/></g><path fill="#333" d="M115-194c55 1 70 41 70 98S169 2 115 4C84 4 66-9 55-30l1 105H24l-1-265h31l2 30c10-21 28-34 59-34zm-8 174c40 0 45-34 45-75s-6-73-45-74c-42 0-51 32-51 76 0 43 10 73 51 73" id="L"/><path fill="#333" d="M106-169C34-169 62-67 57 0H25v-261h32l-1 103c12-21 28-36 61-36 89 0 53 116 60 194h-32v-121c2-32-8-49-39-48" id="M"/><path fill="#333" d="M100-194c62-1 85 37 85 99 1 63-27 99-86 99S16-35 15-95c0-66 28-99 85-99zM99-20c44 1 53-31 53-75 0-43-8-75-51-75s-53 32-53 75 10 74 51 75" id="N"/><path fill="#333" d="M117-194c89-4 53 116 60 194h-32v-121c0-31-8-49-39-48C34-167 62-67 57 0H25l-1-190h30c1 10-1 24 2 32 11-22 29-35 61-36" id="O"/><path fill="#333" d="M16-82v-28h88v28H16" id="P"/><path fill="#333" d="M108 0H70L1-190h34L89-25l56-165h34" id="Q"/><path fill="#333" d="M27 0v-27h64v-190l-56 39v-29l58-41h29v221h61V0H27" id="R"/><g id="f"><use transform="matrix(0.06172839506172839,0,0,0.06172839506172839,0,0)" xlink:href="#L"/><use transform="matrix(0.06172839506172839,0,0,0.06172839506172839,12.345679012345679,0)" xlink:href="#M"/><use transform="matrix(0.06172839506172839,0,0,0.06172839506172839,24.691358024691358,0)" xlink:href="#N"/><use transform="matrix(0.06172839506172839,0,0,0.06172839506172839,37.03703703703704,0)" xlink:href="#O"/><use transform="matrix(0.06172839506172839,0,0,0.06172839506172839,49.382716049382715,0)" xlink:href="#K"/><use transform="matrix(0.06172839506172839,0,0,0.06172839506172839,61.72839506172839,0)" xlink:href="#P"/><use transform="matrix(0.06172839506172839,0,0,0.06172839506172839,69.07407407407408,0)" xlink:href="#M"/><use transform="matrix(0.06172839506172839,0,0,0.06172839506172839,81.41975308641976,0)" xlink:href="#N"/><use transform="matrix(0.06172839506172839,0,0,0.06172839506172839,93.76543209876544,0)" xlink:href="#H"/><use transform="matrix(0.06172839506172839,0,0,0.06172839506172839,112.22222222222223,0)" xlink:href="#K"/><use transform="matrix(0.06172839506172839,0,0,0.06172839506172839,124.56790123456791,0)" xlink:href="#y"/><use transform="matrix(0.06172839506172839,0,0,0.06172839506172839,130.74074074074076,0)" xlink:href="#Q"/><use transform="matrix(0.06172839506172839,0,0,0.06172839506172839,141.85185185185188,0)" xlink:href="#R"/></g><path fill="#333" d="M212-179c-10-28-35-45-73-45-59 0-87 40-87 99 0 60 29 101 89 101 43 0 62-24 78-52l27 14C228-24 195 4 139 4 59 4 22-46 18-125c-6-104 99-153 187-111 19 9 31 26 39 46" id="S"/><g id="g"><use transform="matrix(0.06172839506172839,0,0,0.06172839506172839,0,0)" xlink:href="#x"/><use transform="matrix(0.06172839506172839,0,0,0.06172839506172839,12.345679012345679,0)" xlink:href="#x"/><use transform="matrix(0.06172839506172839,0,0,0.06172839506172839,24.691358024691358,0)" xlink:href="#y"/><use transform="matrix(0.06172839506172839,0,0,0.06172839506172839,30.864197530864196,0)" xlink:href="#x"/><use transform="matrix(0.06172839506172839,0,0,0.06172839506172839,43.20987654320987,0)" xlink:href="#x"/><use transform="matrix(0.06172839506172839,0,0,0.06172839506172839,55.55555555555555,0)" xlink:href="#y"/><use transform="matrix(0.06172839506172839,0,0,0.06172839506172839,61.72839506172839,0)" xlink:href="#z"/><use transform="matrix(0.06172839506172839,0,0,0.06172839506172839,76.5432098765432,0)" xlink:href="#A"/><use transform="matrix(0.06172839506172839,0,0,0.06172839506172839,91.35802469135801,0)" xlink:href="#y"/><use transform="matrix(0.06172839506172839,0,0,0.06172839506172839,97.53086419753085,0)" xlink:href="#B"/><use transform="matrix(0.06172839506172839,0,0,0.06172839506172839,113.5185185185185,0)" xlink:href="#B"/><use transform="matrix(0.06172839506172839,0,0,0.06172839506172839,129.50617283950615,0)" xlink:href="#y"/><use transform="matrix(0.06172839506172839,0,0,0.06172839506172839,135.67901234567898,0)" xlink:href="#S"/><use transform="matrix(0.06172839506172839,0,0,0.06172839506172839,151.66666666666663,0)" xlink:href="#A"/><use transform="matrix(0.06172839506172839,0,0,0.06172839506172839,166.48148148148144,0)" xlink:href="#y"/><use transform="matrix(0.06172839506172839,0,0,0.06172839506172839,172.65432098765427,0)" xlink:href="#D"/><use transform="matrix(0.06172839506172839,0,0,0.06172839506172839,186.17283950617278,0)" xlink:href="#C"/></g><path fill="#333" d="M59-47c-2 24 18 29 38 22v24C64 9 27 4 27-40v-127H5v-23h24l9-43h21v43h35v23H59v120" id="T"/><path fill="#333" d="M143 0L79-87 56-68V0H24v-261h32v163l83-92h37l-77 82L181 0h-38" id="U"/><path fill="#333" d="M206 0h-36l-40-164L89 0H53L-1-190h32L70-26l43-164h34l41 164 42-164h31" id="V"/><path fill="#333" d="M114-163C36-179 61-72 57 0H25l-1-190h30c1 12-1 29 2 39 6-27 23-49 58-41v29" id="W"/><g id="h"><use transform="matrix(0.06172839506172839,0,0,0.06172839506172839,0,0)" xlink:href="#T"/><use transform="matrix(0.06172839506172839,0,0,0.06172839506172839,6.172839506172839,0)" xlink:href="#E"/><use transform="matrix(0.06172839506172839,0,0,0.06172839506172839,11.049382716049383,0)" xlink:href="#O"/><use transform="matrix(0.06172839506172839,0,0,0.06172839506172839,23.395061728395063,0)" xlink:href="#U"/><use transform="matrix(0.06172839506172839,0,0,0.06172839506172839,34.50617283950618,0)" xlink:href="#P"/><use transform="matrix(0.06172839506172839,0,0,0.06172839506172839,41.851851851851855,0)" xlink:href="#V"/><use transform="matrix(0.06172839506172839,0,0,0.06172839506172839,57.839506172839506,0)" xlink:href="#N"/><use transform="matrix(0.06172839506172839,0,0,0.06172839506172839,70.18518518518519,0)" xlink:href="#W"/><use transform="matrix(0.06172839506172839,0,0,0.06172839506172839,77.53086419753087,0)" xlink:href="#U"/><use transform="matrix(0.06172839506172839,0,0,0.06172839506172839,88.64197530864199,0)" xlink:href="#K"/><use transform="matrix(0.06172839506172839,0,0,0.06172839506172839,100.98765432098767,0)" xlink:href="#W"/></g><path fill="#333" d="M127-220V0H93v-220H8v-28h204v28h-85" id="X"/><path fill="#333" d="M101-234c-31-9-42 10-38 44h38v23H63V0H32v-167H5v-23h27c-7-52 17-82 69-68v24" id="Y"/><g id="i"><use transform="matrix(0.06172839506172839,0,0,0.06172839506172839,0,0)" xlink:href="#X"/><use transform="matrix(0.06172839506172839,0,0,0.06172839506172839,12.716049382716047,0)" xlink:href="#W"/><use transform="matrix(0.06172839506172839,0,0,0.06172839506172839,20.061728395061728,0)" xlink:href="#I"/><use transform="matrix(0.06172839506172839,0,0,0.06172839506172839,32.407407407407405,0)" xlink:href="#K"/><use transform="matrix(0.06172839506172839,0,0,0.06172839506172839,44.75308641975308,0)" xlink:href="#Y"/><use transform="matrix(0.06172839506172839,0,0,0.06172839506172839,50.925925925925924,0)" xlink:href="#E"/><use transform="matrix(0.06172839506172839,0,0,0.06172839506172839,55.80246913580247,0)" xlink:href="#U"/></g><path fill="#333" d="M155-56V0h-30v-56H8v-25l114-167h33v167h35v25h-35zm-30-156c-27 46-58 90-88 131h88v-131" id="Z"/><path fill="#333" d="M126-127c33 6 58 20 58 59 0 88-139 92-164 29-3-8-5-16-6-25l32-3c6 27 21 44 54 44 32 0 52-15 52-46 0-38-36-46-79-43v-28c39 1 72-4 72-42 0-27-17-43-46-43-28 0-47 15-49 41l-32-3c6-42 35-63 81-64 48-1 79 21 79 65 0 36-21 52-52 59" id="aa"/><g id="j"><use transform="matrix(0.06172839506172839,0,0,0.06172839506172839,0,0)" xlink:href="#Z"/><use transform="matrix(0.06172839506172839,0,0,0.06172839506172839,12.345679012345679,0)" xlink:href="#Z"/><use transform="matrix(0.06172839506172839,0,0,0.06172839506172839,24.691358024691358,0)" xlink:href="#aa"/></g><path fill="#333" d="M135-143c-3-34-86-38-87 0 15 53 115 12 119 90S17 21 10-45l28-5c4 36 97 45 98 0-10-56-113-15-118-90-4-57 82-63 122-42 12 7 21 19 24 35" id="ab"/><path fill="#333" d="M96-169c-40 0-48 33-48 73s9 75 48 75c24 0 41-14 43-38l32 2c-6 37-31 61-74 61-59 0-76-41-82-99-10-93 101-131 147-64 4 7 5 14 7 22l-32 3c-4-21-16-35-41-35" id="ac"/><path fill="#333" d="M115-194c53 0 69 39 70 98 0 66-23 100-70 100C84 3 66-7 56-30L54 0H23l1-261h32v101c10-23 28-34 59-34zm-8 174c40 0 45-34 45-75 0-40-5-75-45-74-42 0-51 32-51 76 0 43 10 73 51 73" id="ad"/><path fill="#333" d="M24 0v-261h32V0H24" id="ae"/><g id="k"><use transform="matrix(0.06172839506172839,0,0,0.06172839506172839,0,0)" xlink:href="#ab"/><use transform="matrix(0.06172839506172839,0,0,0.06172839506172839,11.11111111111111,0)" xlink:href="#K"/><use transform="matrix(0.06172839506172839,0,0,0.06172839506172839,23.45679012345679,0)" xlink:href="#W"/><use transform="matrix(0.06172839506172839,0,0,0.06172839506172839,30.80246913580247,0)" xlink:href="#Q"/><use transform="matrix(0.06172839506172839,0,0,0.06172839506172839,41.91358024691358,0)" xlink:href="#E"/><use transform="matrix(0.06172839506172839,0,0,0.06172839506172839,46.79012345679013,0)" xlink:href="#ac"/><use transform="matrix(0.06172839506172839,0,0,0.06172839506172839,57.90123456790124,0)" xlink:href="#K"/><use transform="matrix(0.06172839506172839,0,0,0.06172839506172839,70.24691358024693,0)" xlink:href="#P"/><use transform="matrix(0.06172839506172839,0,0,0.06172839506172839,77.59259259259261,0)" xlink:href="#N"/><use transform="matrix(0.06172839506172839,0,0,0.06172839506172839,89.9382716049383,0)" xlink:href="#ab"/><use transform="matrix(0.06172839506172839,0,0,0.06172839506172839,101.04938271604941,0)" xlink:href="#E"/><use transform="matrix(0.06172839506172839,0,0,0.06172839506172839,105.92592592592595,0)" xlink:href="#K"/><use transform="matrix(0.06172839506172839,0,0,0.06172839506172839,118.27160493827164,0)" xlink:href="#P"/><use transform="matrix(0.06172839506172839,0,0,0.06172839506172839,125.61728395061732,0)" xlink:href="#ad"/><use transform="matrix(0.06172839506172839,0,0,0.06172839506172839,137.962962962963,0)" xlink:href="#N"/><use transform="matrix(0.06172839506172839,0,0,0.06172839506172839,150.30864197530866,0)" xlink:href="#N"/><use transform="matrix(0.06172839506172839,0,0,0.06172839506172839,162.65432098765433,0)" xlink:href="#T"/><use transform="matrix(0.06172839506172839,0,0,0.06172839506172839,168.82716049382717,0)" xlink:href="#P"/><use transform="matrix(0.06172839506172839,0,0,0.06172839506172839,176.17283950617283,0)" xlink:href="#Y"/><use transform="matrix(0.06172839506172839,0,0,0.06172839506172839,182.34567901234567,0)" xlink:href="#E"/><use transform="matrix(0.06172839506172839,0,0,0.06172839506172839,187.2222222222222,0)" xlink:href="#ae"/><use transform="matrix(0.06172839506172839,0,0,0.06172839506172839,192.09876543209873,0)" xlink:href="#K"/><use transform="matrix(0.06172839506172839,0,0,0.06172839506172839,204.4444444444444,0)" xlink:href="#ab"/></g><g id="l"><use transform="matrix(0.06172839506172839,0,0,0.06172839506172839,0,0)" xlink:href="#ab"/><use transform="matrix(0.06172839506172839,0,0,0.06172839506172839,11.11111111111111,0)" xlink:href="#K"/><use transform="matrix(0.06172839506172839,0,0,0.06172839506172839,23.45679012345679,0)" xlink:href="#W"/><use transform="matrix(0.06172839506172839,0,0,0.06172839506172839,30.80246913580247,0)" xlink:href="#Q"/><use transform="matrix(0.06172839506172839,0,0,0.06172839506172839,41.91358024691358,0)" xlink:href="#K"/><use transform="matrix(0.06172839506172839,0,0,0.06172839506172839,54.25925925925926,0)" xlink:href="#P"/><use transform="matrix(0.06172839506172839,0,0,0.06172839506172839,61.60493827160494,0)" xlink:href="#L"/><use transform="matrix(0.06172839506172839,0,0,0.06172839506172839,73.95061728395062,0)" xlink:href="#M"/><use transform="matrix(0.06172839506172839,0,0,0.06172839506172839,86.2962962962963,0)" xlink:href="#N"/><use transform="matrix(0.06172839506172839,0,0,0.06172839506172839,98.64197530864199,0)" xlink:href="#O"/><use transform="matrix(0.06172839506172839,0,0,0.06172839506172839,110.98765432098767,0)" xlink:href="#K"/><use transform="matrix(0.06172839506172839,0,0,0.06172839506172839,123.33333333333336,0)" xlink:href="#P"/><use transform="matrix(0.06172839506172839,0,0,0.06172839506172839,130.67901234567904,0)" xlink:href="#M"/><use transform="matrix(0.06172839506172839,0,0,0.06172839506172839,143.0246913580247,0)" xlink:href="#N"/><use transform="matrix(0.06172839506172839,0,0,0.06172839506172839,155.37037037037038,0)" xlink:href="#H"/><use transform="matrix(0.06172839506172839,0,0,0.06172839506172839,173.82716049382717,0)" xlink:href="#K"/></g><path fill="#333" d="M134-131c28 9 52 24 51 62-1 50-34 73-85 73S17-19 16-69c0-36 21-54 49-61-75-25-45-126 34-121 46 3 78 18 79 63 0 33-17 51-44 57zm-34-11c31 1 46-15 46-44 0-28-17-43-47-42-29 0-46 13-45 42 1 28 16 44 46 44zm1 122c35 0 51-18 51-52 0-30-18-46-53-46-33 0-51 17-51 47 0 34 19 51 53 51" id="af"/><g id="m"><use transform="matrix(0.06172839506172839,0,0,0.06172839506172839,0,0)" xlink:href="#af"/><use transform="matrix(0.06172839506172839,0,0,0.06172839506172839,12.345679012345679,0)" xlink:href="#x"/></g><g id="n"><use transform="matrix(0.06172839506172839,0,0,0.06172839506172839,0,0)" xlink:href="#F"/><use transform="matrix(0.06172839506172839,0,0,0.06172839506172839,14.814814814814813,0)" xlink:href="#W"/><use transform="matrix(0.06172839506172839,0,0,0.06172839506172839,22.160493827160494,0)" xlink:href="#N"/><use transform="matrix(0.06172839506172839,0,0,0.06172839506172839,34.50617283950617,0)" xlink:href="#Q"/><use transform="matrix(0.06172839506172839,0,0,0.06172839506172839,45.61728395061728,0)" xlink:href="#E"/><use transform="matrix(0.06172839506172839,0,0,0.06172839506172839,50.49382716049382,0)" xlink:href="#ab"/><use transform="matrix(0.06172839506172839,0,0,0.06172839506172839,61.60493827160494,0)" xlink:href="#E"/><use transform="matrix(0.06172839506172839,0,0,0.06172839506172839,66.48148148148148,0)" xlink:href="#N"/><use transform="matrix(0.06172839506172839,0,0,0.06172839506172839,78.82716049382717,0)" xlink:href="#O"/><use transform="matrix(0.06172839506172839,0,0,0.06172839506172839,91.17283950617285,0)" xlink:href="#K"/><use transform="matrix(0.06172839506172839,0,0,0.06172839506172839,103.51851851851853,0)" xlink:href="#W"/><use transform="matrix(0.06172839506172839,0,0,0.06172839506172839,110.86419753086422,0)" xlink:href="#R"/></g><path fill="#333" d="M114-157C55-157 80-60 75 0H25v-261h50l-1 109c12-26 28-41 61-42 86-1 58 113 63 194h-50c-7-57 23-157-34-157" id="ag"/><path fill="#333" d="M115-3C79 11 28 4 28-45v-112H4v-33h27l15-45h31v45h36v33H77v99c-1 23 16 31 38 25v30" id="ah"/><path fill="#333" d="M135-194c53 0 70 44 70 98 0 56-19 98-73 100-31 1-45-17-59-34 3 33 2 69 2 105H25l-1-265h48c2 10 0 23 3 31 11-24 29-35 60-35zM114-30c33 0 39-31 40-66 0-38-9-64-40-64-56 0-55 130 0 130" id="ai"/><path fill="#333" d="M137-138c1-29-70-34-71-4 15 46 118 7 119 86 1 83-164 76-172 9l43-7c4 19 20 25 44 25 33 8 57-30 24-41C81-84 22-81 20-136c-2-80 154-74 161-7" id="aj"/><path fill="#333" d="M35-132v-50h50v50H35zM35 0v-49h50V0H35" id="ak"/><path fill="#333" d="M4 7l51-268h42L46 7H4" id="al"/><path fill="#333" d="M231 0h-52l-39-155L100 0H48L-1-190h46L77-45c9-52 24-97 36-145h53l37 145 32-145h46" id="am"/><path fill="#333" d="M110-194c64 0 96 36 96 99 0 64-35 99-97 99-61 0-95-36-95-99 0-62 34-99 96-99zm-1 164c35 0 45-28 45-65 0-40-10-65-43-65-34 0-45 26-45 65 0 36 10 65 43 65" id="an"/><path fill="#333" d="M135-150c-39-12-60 13-60 57V0H25l-1-190h47c2 13-1 29 3 40 6-28 27-53 61-41v41" id="ao"/><path fill="#333" d="M147 0L96-86 75-71V0H25v-261h50v150l67-79h53l-66 74L201 0h-54" id="ap"/><path fill="#333" d="M121-226c-27-7-43 5-38 36h38v33H83V0H34v-157H6v-33h28c-9-59 32-81 87-68v32" id="aq"/><path fill="#333" d="M25 0v-261h50V0H25" id="ar"/><path fill="#333" d="M23 0v-37h61v-169l-59 37v-38l62-41h46v211h57V0H23" id="as"/><path fill="#333" d="M185-48c-13 30-37 53-82 52C43 2 14-33 14-96s30-98 90-98c62 0 83 45 84 108H66c0 31 8 55 39 56 18 0 30-7 34-22zm-45-69c5-46-57-63-70-21-2 6-4 13-4 21h74" id="at"/><path fill="#333" d="M135-194c87-1 58 113 63 194h-50c-7-57 23-157-34-157-59 0-34 97-39 157H25l-1-190h47c2 12-1 28 3 38 12-26 28-41 61-42" id="au"/><g id="o"><use transform="matrix(0.04938271604938272,0,0,0.04938271604938272,0,0)" xlink:href="#ag"/><use transform="matrix(0.04938271604938272,0,0,0.04938271604938272,10.814814814814815,0)" xlink:href="#ah"/><use transform="matrix(0.04938271604938272,0,0,0.04938271604938272,16.691358024691358,0)" xlink:href="#ah"/><use transform="matrix(0.04938271604938272,0,0,0.04938271604938272,22.567901234567902,0)" xlink:href="#ai"/><use transform="matrix(0.04938271604938272,0,0,0.04938271604938272,33.382716049382715,0)" xlink:href="#aj"/><use transform="matrix(0.04938271604938272,0,0,0.04938271604938272,43.25925925925926,0)" xlink:href="#ak"/><use transform="matrix(0.04938271604938272,0,0,0.04938271604938272,49.135802469135804,0)" xlink:href="#al"/><use transform="matrix(0.04938271604938272,0,0,0.04938271604938272,54.074074074074076,0)" xlink:href="#al"/><use transform="matrix(0.04938271604938272,0,0,0.04938271604938272,59.01234567901235,0)" xlink:href="#am"/><use transform="matrix(0.04938271604938272,0,0,0.04938271604938272,72.8395061728395,0)" xlink:href="#an"/><use transform="matrix(0.04938271604938272,0,0,0.04938271604938272,83.65432098765432,0)" xlink:href="#ao"/><use transform="matrix(0.04938271604938272,0,0,0.04938271604938272,90.5679012345679,0)" xlink:href="#ap"/><use transform="matrix(0.04938271604938272,0,0,0.04938271604938272,100.44444444444444,0)" xlink:href="#aq"/><use transform="matrix(0.04938271604938272,0,0,0.04938271604938272,106.320987654321,0)" xlink:href="#ar"/><use transform="matrix(0.04938271604938272,0,0,0.04938271604938272,111.25925925925927,0)" xlink:href="#an"/><use transform="matrix(0.04938271604938272,0,0,0.04938271604938272,122.07407407407409,0)" xlink:href="#am"/><use transform="matrix(0.04938271604938272,0,0,0.04938271604938272,135.90123456790124,0)" xlink:href="#as"/><use transform="matrix(0.04938271604938272,0,0,0.04938271604938272,145.77777777777777,0)" xlink:href="#al"/><use transform="matrix(0.04938271604938272,0,0,0.04938271604938272,150.71604938271605,0)" xlink:href="#ap"/><use transform="matrix(0.04938271604938272,0,0,0.04938271604938272,160.5925925925926,0)" xlink:href="#at"/><use transform="matrix(0.04938271604938272,0,0,0.04938271604938272,170.46913580246917,0)" xlink:href="#ao"/><use transform="matrix(0.04938271604938272,0,0,0.04938271604938272,177.38271604938274,0)" xlink:href="#au"/><use transform="matrix(0.04938271604938272,0,0,0.04938271604938272,188.19753086419755,0)" xlink:href="#at"/><use transform="matrix(0.04938271604938272,0,0,0.04938271604938272,198.07407407407408,0)" xlink:href="#ar"/></g><path fill="#333" d="M133-34C117-15 103 5 69 4 32 3 11-16 11-54c-1-60 55-63 116-61 1-26-3-47-28-47-18 1-26 9-28 27l-52-2c7-38 36-58 82-57s74 22 75 68l1 82c-1 14 12 18 25 15v27c-30 8-71 5-69-32zm-48 3c29 0 43-24 42-57-32 0-66-3-65 30 0 17 8 27 23 27" id="av"/><path fill="#333" d="M85 4C-2 5 27-109 22-190h50c7 57-23 150 33 157 60-5 35-97 40-157h50l1 190h-47c-2-12 1-28-3-38-12 25-28 42-61 42" id="aw"/><path fill="#333" d="M24 0v-54h51V0H24" id="ax"/><path fill="#333" d="M25-224v-37h50v37H25zM25 0v-190h50V0H25" id="ay"/><path fill="#333" d="M144 0l-44-69L55 0H2l70-98-66-92h53l41 62 40-62h54l-67 91 71 99h-54" id="az"/><g id="p"><use transform="matrix(0.04938271604938272,0,0,0.04938271604938272,0,0)" xlink:href="#ag"/><use transform="matrix(0.04938271604938272,0,0,0.04938271604938272,10.814814814814815,0)" xlink:href="#ah"/><use transform="matrix(0.04938271604938272,0,0,0.04938271604938272,16.691358024691358,0)" xlink:href="#ah"/><use transform="matrix(0.04938271604938272,0,0,0.04938271604938272,22.567901234567902,0)" xlink:href="#ai"/><use transform="matrix(0.04938271604938272,0,0,0.04938271604938272,33.382716049382715,0)" xlink:href="#aj"/><use transform="matrix(0.04938271604938272,0,0,0.04938271604938272,43.25925925925926,0)" xlink:href="#ak"/><use transform="matrix(0.04938271604938272,0,0,0.04938271604938272,49.135802469135804,0)" xlink:href="#al"/><use transform="matrix(0.04938271604938272,0,0,0.04938271604938272,54.074074074074076,0)" xlink:href="#al"/><use transform="matrix(0.04938271604938272,0,0,0.04938271604938272,59.01234567901235,0)" xlink:href="#am"/><use transform="matrix(0.04938271604938272,0,0,0.04938271604938272,72.8395061728395,0)" xlink:href="#an"/><use transform="matrix(0.04938271604938272,0,0,0.04938271604938272,83.65432098765432,0)" xlink:href="#ao"/><use transform="matrix(0.04938271604938272,0,0,0.04938271604938272,90.5679012345679,0)" xlink:href="#ap"/><use transform="matrix(0.04938271604938272,0,0,0.04938271604938272,100.44444444444444,0)" xlink:href="#aq"/><use transform="matrix(0.04938271604938272,0,0,0.04938271604938272,106.320987654321,0)" xlink:href="#ar"/><use transform="matrix(0.04938271604938272,0,0,0.04938271604938272,111.25925925925927,0)" xlink:href="#an"/><use transform="matrix(0.04938271604938272,0,0,0.04938271604938272,122.07407407407409,0)" xlink:href="#am"/><use transform="matrix(0.04938271604938272,0,0,0.04938271604938272,135.90123456790124,0)" xlink:href="#as"/><use transform="matrix(0.04938271604938272,0,0,0.04938271604938272,145.77777777777777,0)" xlink:href="#al"/><use transform="matrix(0.04938271604938272,0,0,0.04938271604938272,150.71604938271605,0)" xlink:href="#av"/><use transform="matrix(0.04938271604938272,0,0,0.04938271604938272,160.5925925925926,0)" xlink:href="#aw"/><use transform="matrix(0.04938271604938272,0,0,0.04938271604938272,171.40740740740742,0)" xlink:href="#ah"/><use transform="matrix(0.04938271604938272,0,0,0.04938271604938272,177.28395061728395,0)" xlink:href="#an"/><use transform="matrix(0.04938271604938272,0,0,0.04938271604938272,188.09876543209876,0)" xlink:href="#ax"/><use transform="matrix(0.04938271604938272,0,0,0.04938271604938272,193.03703703703704,0)" xlink:href="#ay"/><use transform="matrix(0.04938271604938272,0,0,0.04938271604938272,197.97530864197532,0)" xlink:href="#ai"/><use transform="matrix(0.04938271604938272,0,0,0.04938271604938272,208.79012345679016,0)" xlink:href="#az"/><use transform="matrix(0.04938271604938272,0,0,0.04938271604938272,218.66666666666669,0)" xlink:href="#at"/></g><path fill="#333" d="M88-194c31-1 46 15 58 34l-1-101h50l1 261h-48c-2-10 0-23-3-31C134-8 116 4 84 4 32 4 16-41 15-95c0-56 19-97 73-99zm17 164c33 0 40-30 41-66 1-37-9-64-41-64s-38 30-39 65c0 43 13 65 39 65" id="aA"/><g id="q"><use transform="matrix(0.04938271604938272,0,0,0.04938271604938272,0,0)" xlink:href="#ag"/><use transform="matrix(0.04938271604938272,0,0,0.04938271604938272,10.814814814814815,0)" xlink:href="#ah"/><use transform="matrix(0.04938271604938272,0,0,0.04938271604938272,16.691358024691358,0)" xlink:href="#ah"/><use transform="matrix(0.04938271604938272,0,0,0.04938271604938272,22.567901234567902,0)" xlink:href="#ai"/><use transform="matrix(0.04938271604938272,0,0,0.04938271604938272,33.382716049382715,0)" xlink:href="#aj"/><use transform="matrix(0.04938271604938272,0,0,0.04938271604938272,43.25925925925926,0)" xlink:href="#ak"/><use transform="matrix(0.04938271604938272,0,0,0.04938271604938272,49.135802469135804,0)" xlink:href="#al"/><use transform="matrix(0.04938271604938272,0,0,0.04938271604938272,54.074074074074076,0)" xlink:href="#al"/><use transform="matrix(0.04938271604938272,0,0,0.04938271604938272,59.01234567901235,0)" xlink:href="#am"/><use transform="matrix(0.04938271604938272,0,0,0.04938271604938272,72.8395061728395,0)" xlink:href="#an"/><use transform="matrix(0.04938271604938272,0,0,0.04938271604938272,83.65432098765432,0)" xlink:href="#ao"/><use transform="matrix(0.04938271604938272,0,0,0.04938271604938272,90.5679012345679,0)" xlink:href="#ap"/><use transform="matrix(0.04938271604938272,0,0,0.04938271604938272,100.44444444444444,0)" xlink:href="#aq"/><use transform="matrix(0.04938271604938272,0,0,0.04938271604938272,106.320987654321,0)" xlink:href="#ar"/><use transform="matrix(0.04938271604938272,0,0,0.04938271604938272,111.25925925925927,0)" xlink:href="#an"/><use transform="matrix(0.04938271604938272,0,0,0.04938271604938272,122.07407407407409,0)" xlink:href="#am"/><use transform="matrix(0.04938271604938272,0,0,0.04938271604938272,135.90123456790124,0)" xlink:href="#as"/><use transform="matrix(0.04938271604938272,0,0,0.04938271604938272,145.77777777777777,0)" xlink:href="#al"/><use transform="matrix(0.04938271604938272,0,0,0.04938271604938272,150.71604938271605,0)" xlink:href="#ay"/><use transform="matrix(0.04938271604938272,0,0,0.04938271604938272,155.65432098765433,0)" xlink:href="#au"/><use transform="matrix(0.04938271604938272,0,0,0.04938271604938272,166.46913580246914,0)" xlink:href="#ay"/><use transform="matrix(0.04938271604938272,0,0,0.04938271604938272,171.40740740740742,0)" xlink:href="#ah"/><use transform="matrix(0.04938271604938272,0,0,0.04938271604938272,177.28395061728395,0)" xlink:href="#ao"/><use transform="matrix(0.04938271604938272,0,0,0.04938271604938272,184.19753086419752,0)" xlink:href="#aA"/></g><path fill="#333" d="M14-72v-43h91v43H14" id="aB"/><path fill="#333" d="M220-157c-53 9-28 100-34 157h-49v-107c1-27-5-49-29-50C55-147 81-57 75 0H25l-1-190h47c2 12-1 28 3 38 10-53 101-56 108 0 13-22 24-43 59-42 82 1 51 116 57 194h-49v-107c-1-25-5-48-29-50" id="aC"/><g id="r"><use transform="matrix(0.04938271604938272,0,0,0.04938271604938272,0,0)" xlink:href="#ag"/><use transform="matrix(0.04938271604938272,0,0,0.04938271604938272,10.814814814814815,0)" xlink:href="#ah"/><use transform="matrix(0.04938271604938272,0,0,0.04938271604938272,16.691358024691358,0)" xlink:href="#ah"/><use transform="matrix(0.04938271604938272,0,0,0.04938271604938272,22.567901234567902,0)" xlink:href="#ai"/><use transform="matrix(0.04938271604938272,0,0,0.04938271604938272,33.382716049382715,0)" xlink:href="#aj"/><use transform="matrix(0.04938271604938272,0,0,0.04938271604938272,43.25925925925926,0)" xlink:href="#ak"/><use transform="matrix(0.04938271604938272,0,0,0.04938271604938272,49.135802469135804,0)" xlink:href="#al"/><use transform="matrix(0.04938271604938272,0,0,0.04938271604938272,54.074074074074076,0)" xlink:href="#al"/><use transform="matrix(0.04938271604938272,0,0,0.04938271604938272,59.01234567901235,0)" xlink:href="#am"/><use transform="matrix(0.04938271604938272,0,0,0.04938271604938272,72.8395061728395,0)" xlink:href="#an"/><use transform="matrix(0.04938271604938272,0,0,0.04938271604938272,83.65432098765432,0)" xlink:href="#ao"/><use transform="matrix(0.04938271604938272,0,0,0.04938271604938272,90.5679012345679,0)" xlink:href="#ap"/><use transform="matrix(0.04938271604938272,0,0,0.04938271604938272,100.44444444444444,0)" xlink:href="#aq"/><use transform="matrix(0.04938271604938272,0,0,0.04938271604938272,106.320987654321,0)" xlink:href="#ar"/><use transform="matrix(0.04938271604938272,0,0,0.04938271604938272,111.25925925925927,0)" xlink:href="#an"/><use transform="matrix(0.04938271604938272,0,0,0.04938271604938272,122.07407407407409,0)" xlink:href="#am"/><use transform="matrix(0.04938271604938272,0,0,0.04938271604938272,135.90123456790124,0)" xlink:href="#as"/><use transform="matrix(0.04938271604938272,0,0,0.04938271604938272,145.77777777777777,0)" xlink:href="#al"/><use transform="matrix(0.04938271604938272,0,0,0.04938271604938272,150.71604938271605,0)" xlink:href="#ai"/><use transform="matrix(0.04938271604938272,0,0,0.04938271604938272,161.53086419753086,0)" xlink:href="#ag"/><use transform="matrix(0.04938271604938272,0,0,0.04938271604938272,172.34567901234567,0)" xlink:href="#an"/><use transform="matrix(0.04938271604938272,0,0,0.04938271604938272,183.16049382716048,0)" xlink:href="#au"/><use transform="matrix(0.04938271604938272,0,0,0.04938271604938272,193.9753086419753,0)" xlink:href="#at"/><use transform="matrix(0.04938271604938272,0,0,0.04938271604938272,203.85185185185188,0)" xlink:href="#aB"/><use transform="matrix(0.04938271604938272,0,0,0.04938271604938272,209.72839506172838,0)" xlink:href="#ag"/><use transform="matrix(0.04938271604938272,0,0,0.04938271604938272,220.5432098765432,0)" xlink:href="#an"/><use transform="matrix(0.04938271604938272,0,0,0.04938271604938272,231.358024691358,0)" xlink:href="#aC"/><use transform="matrix(0.04938271604938272,0,0,0.04938271604938272,247.16049382716048,0)" xlink:href="#at"/></g><path fill="#333" d="M182-182c0 78-84 86-111 141h115V0H12c-6-101 99-100 120-180 1-22-12-31-33-32-23 0-32 14-35 34l-49-3c5-45 32-70 84-70 51 0 83 22 83 69" id="aD"/><g id="s"><use transform="matrix(0.04938271604938272,0,0,0.04938271604938272,0,0)" xlink:href="#ag"/><use transform="matrix(0.04938271604938272,0,0,0.04938271604938272,10.814814814814815,0)" xlink:href="#ah"/><use transform="matrix(0.04938271604938272,0,0,0.04938271604938272,16.691358024691358,0)" xlink:href="#ah"/><use transform="matrix(0.04938271604938272,0,0,0.04938271604938272,22.567901234567902,0)" xlink:href="#ai"/><use transform="matrix(0.04938271604938272,0,0,0.04938271604938272,33.382716049382715,0)" xlink:href="#aj"/><use transform="matrix(0.04938271604938272,0,0,0.04938271604938272,43.25925925925926,0)" xlink:href="#ak"/><use transform="matrix(0.04938271604938272,0,0,0.04938271604938272,49.135802469135804,0)" xlink:href="#al"/><use transform="matrix(0.04938271604938272,0,0,0.04938271604938272,54.074074074074076,0)" xlink:href="#al"/><use transform="matrix(0.04938271604938272,0,0,0.04938271604938272,59.01234567901235,0)" xlink:href="#am"/><use transform="matrix(0.04938271604938272,0,0,0.04938271604938272,72.8395061728395,0)" xlink:href="#an"/><use transform="matrix(0.04938271604938272,0,0,0.04938271604938272,83.65432098765432,0)" xlink:href="#ao"/><use transform="matrix(0.04938271604938272,0,0,0.04938271604938272,90.5679012345679,0)" xlink:href="#ap"/><use transform="matrix(0.04938271604938272,0,0,0.04938271604938272,100.44444444444444,0)" xlink:href="#aq"/><use transform="matrix(0.04938271604938272,0,0,0.04938271604938272,106.320987654321,0)" xlink:href="#ar"/><use transform="matrix(0.04938271604938272,0,0,0.04938271604938272,111.25925925925927,0)" xlink:href="#an"/><use transform="matrix(0.04938271604938272,0,0,0.04938271604938272,122.07407407407409,0)" xlink:href="#am"/><use transform="matrix(0.04938271604938272,0,0,0.04938271604938272,135.90123456790124,0)" xlink:href="#aD"/><use transform="matrix(0.04938271604938272,0,0,0.04938271604938272,145.77777777777777,0)" xlink:href="#al"/><use transform="matrix(0.04938271604938272,0,0,0.04938271604938272,150.71604938271605,0)" xlink:href="#ap"/><use transform="matrix(0.04938271604938272,0,0,0.04938271604938272,160.5925925925926,0)" xlink:href="#at"/><use transform="matrix(0.04938271604938272,0,0,0.04938271604938272,170.46913580246917,0)" xlink:href="#ao"/><use transform="matrix(0.04938271604938272,0,0,0.04938271604938272,177.38271604938274,0)" xlink:href="#au"/><use transform="matrix(0.04938271604938272,0,0,0.04938271604938272,188.19753086419755,0)" xlink:href="#at"/><use transform="matrix(0.04938271604938272,0,0,0.04938271604938272,198.07407407407408,0)" xlink:href="#ar"/></g><g id="t"><use transform="matrix(0.04938271604938272,0,0,0.04938271604938272,0,0)" xlink:href="#ag"/><use transform="matrix(0.04938271604938272,0,0,0.04938271604938272,10.814814814814815,0)" xlink:href="#ah"/><use transform="matrix(0.04938271604938272,0,0,0.04938271604938272,16.691358024691358,0)" xlink:href="#ah"/><use transform="matrix(0.04938271604938272,0,0,0.04938271604938272,22.567901234567902,0)" xlink:href="#ai"/><use transform="matrix(0.04938271604938272,0,0,0.04938271604938272,33.382716049382715,0)" xlink:href="#aj"/><use transform="matrix(0.04938271604938272,0,0,0.04938271604938272,43.25925925925926,0)" xlink:href="#ak"/><use transform="matrix(0.04938271604938272,0,0,0.04938271604938272,49.135802469135804,0)" xlink:href="#al"/><use transform="matrix(0.04938271604938272,0,0,0.04938271604938272,54.074074074074076,0)" xlink:href="#al"/><use transform="matrix(0.04938271604938272,0,0,0.04938271604938272,59.01234567901235,0)" xlink:href="#am"/><use transform="matrix(0.04938271604938272,0,0,0.04938271604938272,72.8395061728395,0)" xlink:href="#an"/><use transform="matrix(0.04938271604938272,0,0,0.04938271604938272,83.65432098765432,0)" xlink:href="#ao"/><use transform="matrix(0.04938271604938272,0,0,0.04938271604938272,90.5679012345679,0)" xlink:href="#ap"/><use transform="matrix(0.04938271604938272,0,0,0.04938271604938272,100.44444444444444,0)" xlink:href="#aq"/><use transform="matrix(0.04938271604938272,0,0,0.04938271604938272,106.320987654321,0)" xlink:href="#ar"/><use transform="matrix(0.04938271604938272,0,0,0.04938271604938272,111.25925925925927,0)" xlink:href="#an"/><use transform="matrix(0.04938271604938272,0,0,0.04938271604938272,122.07407407407409,0)" xlink:href="#am"/><use transform="matrix(0.04938271604938272,0,0,0.04938271604938272,135.90123456790124,0)" xlink:href="#aD"/><use transform="matrix(0.04938271604938272,0,0,0.04938271604938272,145.77777777777777,0)" xlink:href="#al"/><use transform="matrix(0.04938271604938272,0,0,0.04938271604938272,150.71604938271605,0)" xlink:href="#av"/><use transform="matrix(0.04938271604938272,0,0,0.04938271604938272,160.5925925925926,0)" xlink:href="#aw"/><use transform="matrix(0.04938271604938272,0,0,0.04938271604938272,171.40740740740742,0)" xlink:href="#ah"/><use transform="matrix(0.04938271604938272,0,0,0.04938271604938272,177.28395061728395,0)" xlink:href="#an"/><use transform="matrix(0.04938271604938272,0,0,0.04938271604938272,188.09876543209876,0)" xlink:href="#ax"/><use transform="matrix(0.04938271604938272,0,0,0.04938271604938272,193.03703703703704,0)" xlink:href="#ay"/><use transform="matrix(0.04938271604938272,0,0,0.04938271604938272,197.97530864197532,0)" xlink:href="#ai"/><use transform="matrix(0.04938271604938272,0,0,0.04938271604938272,208.79012345679016,0)" xlink:href="#az"/><use transform="matrix(0.04938271604938272,0,0,0.04938271604938272,218.66666666666669,0)" xlink:href="#at"/></g><g id="u"><use transform="matrix(0.04938271604938272,0,0,0.04938271604938272,0,0)" xlink:href="#ag"/><use transform="matrix(0.04938271604938272,0,0,0.04938271604938272,10.814814814814815,0)" xlink:href="#ah"/><use transform="matrix(0.04938271604938272,0,0,0.04938271604938272,16.691358024691358,0)" xlink:href="#ah"/><use transform="matrix(0.04938271604938272,0,0,0.04938271604938272,22.567901234567902,0)" xlink:href="#ai"/><use transform="matrix(0.04938271604938272,0,0,0.04938271604938272,33.382716049382715,0)" xlink:href="#aj"/><use transform="matrix(0.04938271604938272,0,0,0.04938271604938272,43.25925925925926,0)" xlink:href="#ak"/><use transform="matrix(0.04938271604938272,0,0,0.04938271604938272,49.135802469135804,0)" xlink:href="#al"/><use transform="matrix(0.04938271604938272,0,0,0.04938271604938272,54.074074074074076,0)" xlink:href="#al"/><use transform="matrix(0.04938271604938272,0,0,0.04938271604938272,59.01234567901235,0)" xlink:href="#am"/><use transform="matrix(0.04938271604938272,0,0,0.04938271604938272,72.8395061728395,0)" xlink:href="#an"/><use transform="matrix(0.04938271604938272,0,0,0.04938271604938272,83.65432098765432,0)" xlink:href="#ao"/><use transform="matrix(0.04938271604938272,0,0,0.04938271604938272,90.5679012345679,0)" xlink:href="#ap"/><use transform="matrix(0.04938271604938272,0,0,0.04938271604938272,100.44444444444444,0)" xlink:href="#aq"/><use transform="matrix(0.04938271604938272,0,0,0.04938271604938272,106.320987654321,0)" xlink:href="#ar"/><use transform="matrix(0.04938271604938272,0,0,0.04938271604938272,111.25925925925927,0)" xlink:href="#an"/><use transform="matrix(0.04938271604938272,0,0,0.04938271604938272,122.07407407407409,0)" xlink:href="#am"/><use transform="matrix(0.04938271604938272,0,0,0.04938271604938272,135.90123456790124,0)" xlink:href="#aD"/><use transform="matrix(0.04938271604938272,0,0,0.04938271604938272,145.77777777777777,0)" xlink:href="#al"/><use transform="matrix(0.04938271604938272,0,0,0.04938271604938272,150.71604938271605,0)" xlink:href="#ay"/><use transform="matrix(0.04938271604938272,0,0,0.04938271604938272,155.65432098765433,0)" xlink:href="#au"/><use transform="matrix(0.04938271604938272,0,0,0.04938271604938272,166.46913580246914,0)" xlink:href="#ay"/><use transform="matrix(0.04938271604938272,0,0,0.04938271604938272,171.40740740740742,0)" xlink:href="#ah"/><use transform="matrix(0.04938271604938272,0,0,0.04938271604938272,177.28395061728395,0)" xlink:href="#ao"/><use transform="matrix(0.04938271604938272,0,0,0.04938271604938272,184.19753086419752,0)" xlink:href="#aA"/></g><g id="v"><use transform="matrix(0.04938271604938272,0,0,0.04938271604938272,0,0)" xlink:href="#ag"/><use transform="matrix(0.04938271604938272,0,0,0.04938271604938272,10.814814814814815,0)" xlink:href="#ah"/><use transform="matrix(0.04938271604938272,0,0,0.04938271604938272,16.691358024691358,0)" xlink:href="#ah"/><use transform="matrix(0.04938271604938272,0,0,0.04938271604938272,22.567901234567902,0)" xlink:href="#ai"/><use transform="matrix(0.04938271604938272,0,0,0.04938271604938272,33.382716049382715,0)" xlink:href="#aj"/><use transform="matrix(0.04938271604938272,0,0,0.04938271604938272,43.25925925925926,0)" xlink:href="#ak"/><use transform="matrix(0.04938271604938272,0,0,0.04938271604938272,49.135802469135804,0)" xlink:href="#al"/><use transform="matrix(0.04938271604938272,0,0,0.04938271604938272,54.074074074074076,0)" xlink:href="#al"/><use transform="matrix(0.04938271604938272,0,0,0.04938271604938272,59.01234567901235,0)" xlink:href="#am"/><use transform="matrix(0.04938271604938272,0,0,0.04938271604938272,72.8395061728395,0)" xlink:href="#an"/><use transform="matrix(0.04938271604938272,0,0,0.04938271604938272,83.65432098765432,0)" xlink:href="#ao"/><use transform="matrix(0.04938271604938272,0,0,0.04938271604938272,90.5679012345679,0)" xlink:href="#ap"/><use transform="matrix(0.04938271604938272,0,0,0.04938271604938272,100.44444444444444,0)" xlink:href="#aq"/><use transform="matrix(0.04938271604938272,0,0,0.04938271604938272,106.320987654321,0)" xlink:href="#ar"/><use transform="matrix(0.04938271604938272,0,0,0.04938271604938272,111.25925925925927,0)" xlink:href="#an"/><use transform="matrix(0.04938271604938272,0,0,0.04938271604938272,122.07407407407409,0)" xlink:href="#am"/><use transform="matrix(0.04938271604938272,0,0,0.04938271604938272,135.90123456790124,0)" xlink:href="#aD"/><use transform="matrix(0.04938271604938272,0,0,0.04938271604938272,145.77777777777777,0)" xlink:href="#al"/><use transform="matrix(0.04938271604938272,0,0,0.04938271604938272,150.71604938271605,0)" xlink:href="#ai"/><use transform="matrix(0.04938271604938272,0,0,0.04938271604938272,161.53086419753086,0)" xlink:href="#ag"/><use transform="matrix(0.04938271604938272,0,0,0.04938271604938272,172.34567901234567,0)" xlink:href="#an"/><use transform="matrix(0.04938271604938272,0,0,0.04938271604938272,183.16049382716048,0)" xlink:href="#au"/><use transform="matrix(0.04938271604938272,0,0,0.04938271604938272,193.9753086419753,0)" xlink:href="#at"/><use transform="matrix(0.04938271604938272,0,0,0.04938271604938272,203.85185185185188,0)" xlink:href="#aB"/><use transform="matrix(0.04938271604938272,0,0,0.04938271604938272,209.72839506172838,0)" xlink:href="#ag"/><use transform="matrix(0.04938271604938272,0,0,0.04938271604938272,220.5432098765432,0)" xlink:href="#an"/><use transform="matrix(0.04938271604938272,0,0,0.04938271604938272,231.358024691358,0)" xlink:href="#aC"/><use transform="matrix(0.04938271604938272,0,0,0.04938271604938272,247.16049382716048,0)" xlink:href="#at"/></g></defs></g></svg>